{"title":"The Taking of Pelham 123 [2009] 1080p.BluRay.x264-LTT","uid":5506705,"size":6206927302,"categoryP":"video","categoryS":"hd___movies","magnet":"?xt=urn:btih:baac59e0c1936d4ac3c3bd31656a6e4c797d6e04&amp;dn=The+Taking+of+Pelham+123+%5B2009%5D+1080p.BluRay.x264-LTT&amp;tr=udp%3A%2F%2Ftracker.openbittorrent.com%3A80&amp;tr=udp%3A%2F%2Fopen.demonii.com%3A1337&amp;tr=udp%3A%2F%2Ftracker.coppersurfer.tk%3A6969&amp;tr=udp%3A%2F%2Fexodus.desync.com%3A6969","seeders":1,"leechers":0,"uploader":"Ltt_01","files":2,"time":1271810156,"description":"The Taking of Pelham 123 1080p.mkv\n**********************************\n\nTiTLE......  The Taking of Pelham 1 2 3\nYEAR.......  2009\nGENRE......  Action | Crime | Thriller \niMDB RATE..  User Rating: 6.5/10 (29,192 votes)\niMDB URL... &lt;a href=&quot; http://www.imdb.com/title/tt1111422/&quot; rel=&quot;nofollow&quot; target=&quot;_NEW&quot;&gt; http://www.imdb.com/title/tt1111422/&lt;/a&gt;\nAwards 2010: 4 nominations\n*************************************************\n\nVideo\nDuration                         : 1h 45mn\nBit rate                         : 6 302 Kbps\nWidth                            : 1 920 pixels\nHeight                           : 816 pixels\nDisplay aspect ratio             : 2.35:1\nFrame rate                       : 23.976 fps\nStream size                      : 4.54 GiB (79%)\n\nAudio\nFormat                           : DTS\nFormat/Info                      : Digital Theater Systems\nBit rate                         : 1 510 Kbps\nChannel(s)                       : 6 channels\nChannel positions                : Front: L C R, Surround: L R, LFE\nSampling rate                    : 48.0 KHz\nResolution                       : 24 bits\nStream size                      : 1.12 GiB (19%)\nLanguage                         : English\n\nSubtitles: English\n******************\n","torrent":{"xt":"urn:btih:baac59e0c1936d4ac3c3bd31656a6e4c797d6e04","amp;dn":"The+Taking+of+Pelham+123+%5B2009%5D+1080p.BluRay.x264-LTT","amp;tr":["udp%3A%2F%2Ftracker.openbittorrent.com%3A80","udp%3A%2F%2Fopen.demonii.com%3A1337","udp%3A%2F%2Ftracker.coppersurfer.tk%3A6969","udp%3A%2F%2Fexodus.desync.com%3A6969"],"infoHash":"baac59e0c1936d4ac3c3bd31656a6e4c797d6e04","infoHashBuffer":{"type":"Buffer","data":[186,172,89,224,193,147,109,74,195,195,189,49,101,106,110,76,121,125,110,4]},"announce":[],"urlList":[]}}